ffmpeg version 3.4.8-0ubuntu0.2 Copyright (c) 2000-2020 the FFmpeg developers
  built with gcc 7 (Ubuntu 7.5.0-3ubuntu1~18.04)
  configuration: --prefix=/usr --extra-version=0ubuntu0.2 --toolchain=hardened --libdir=/usr/lib/x86_64-linux-gnu --incdir=/usr/include/x86_64-linux-gnu --enable-gpl --disable-stripping --enable-avresample --enable-avisynth --enable-gnutls --enable-ladspa --enable-libass --enable-libbluray --enable-libbs2b --enable-libcaca --enable-libcdio --enable-libflite --enable-libfontconfig --enable-libfreetype --enable-libfribidi --enable-libgme --enable-libgsm --enable-libmp3lame --enable-libmysofa --enable-libopenjpeg --enable-libopenmpt --enable-libopus --enable-libpulse --enable-librubberband --enable-librsvg --enable-libshine --enable-libsnappy --enable-libsoxr --enable-libspeex --enable-libssh --enable-libtheora --enable-libtwolame --enable-libvorbis --enable-libvpx --enable-libwavpack --enable-libwebp --enable-libx265 --enable-libxml2 --enable-libxvid --enable-libzmq --enable-libzvbi --enable-omx --enable-openal --enable-opengl --enable-sdl2 --enable-libdc1394 --enable-libdrm --enable-libiec61883 --enable-chromaprint --enable-frei0r --enable-libopencv --enable-libx264 --enable-shared
  libavutil      55. 78.100 / 55. 78.100
  libavcodec     57.107.100 / 57.107.100
  libavformat    57. 83.100 / 57. 83.100
  libavdevice    57. 10.100 / 57. 10.100
  libavfilter     6.107.100 /  6.107.100
  libavresample   3.  7.  0 /  3.  7.  0
  libswscale      4.  8.100 /  4.  8.100
  libswresample   2.  9.100 /  2.  9.100
  libpostproc    54.  7.100 / 54.  7.100
[rawvideo @ 0x55fa0112aa20] Estimating duration from bitrate, this may be inaccurate
Input #0, rawvideo, from '../../SVC-Encoder-20220109T061506Z-001/SVC-Encoder/Dataset/RollerCoaster/ERP_8x8/tile_yuv/Tile_38_480x240.yuv':
  Duration: 00:00:10.00, start: 0.000000, bitrate: 41472 kb/s
    Stream #0:0: Video: rawvideo (I420 / 0x30323449), yuv420p, 480x240, 41472 kb/s, 30 tbr, 30 tbn, 30 tbc
Stream mapping:
  Stream #0:0 -> #0:0 (rawvideo (native) -> h264 (libx264))
Press [q] to stop, [?] for help
[libx264 @ 0x55fa01137c60] using cpu capabilities: MMX2 SSE2Fast LZCNT SSSE3 SSE4.2 AVX
[libx264 @ 0x55fa01137c60] profile High, level 2.1
Output #0, rawvideo, to 'RollerCoaster_Tile_38_480x240_x264_QP_24.h264':
  Metadata:
    encoder         : Lavf57.83.100
    Stream #0:0: Video: h264 (libx264), yuv420p, 480x240, q=-1--1, 30 fps, 30 tbn, 30 tbc
    Metadata:
      encoder         : Lavc57.107.100 libx264
    Side data:
      cpb: bitrate max/min/avg: 0/0/0 buffer size: 0 vbv_delay: -1
frame=  132 fps=0.0 q=30.0 PSNR=Y:nan U:nan V:nan *:nan size=     127kB time=00:00:02.96 bitrate= 350.3kbits/s speed=5.91x    frame=  255 fps=254 q=30.0 PSNR=Y:nan U:nan V:nan *:nan size=     256kB time=00:00:07.06 bitrate= 296.8kbits/s speed=7.04x    frame=  300 fps=230 q=30.0 LPSNR=Y:inf U:inf V:inf *:inf size=     372kB time=00:00:09.93 bitrate= 306.8kbits/s speed=7.63x    
video:372kB audio:0kB subtitle:0kB other streams:0kB global headers:0kB muxing overhead: 0.000000%
[libx264 @ 0x55fa01137c60] frame I:2     Avg QP:22.31  size: 19196  PSNR Mean Y:43.68 U:48.86 V:51.78 Avg:44.96 Global:44.96
[libx264 @ 0x55fa01137c60] frame P:76    Avg QP:23.77  size:  3503  PSNR Mean Y:40.45 U:48.11 V:50.21 Avg:41.92 Global:41.85
[libx264 @ 0x55fa01137c60] frame B:222   Avg QP:29.44  size:   344  PSNR Mean Y:40.20 U:48.00 V:50.23 Avg:41.67 Global:41.63
[libx264 @ 0x55fa01137c60] consecutive B-frames:  1.0%  0.7%  1.0% 97.3%
[libx264 @ 0x55fa01137c60] mb I  I16..4:  0.8% 89.0% 10.2%
[libx264 @ 0x55fa01137c60] mb P  I16..4:  0.0%  0.5%  0.7%  P16..4: 43.4% 24.9% 17.3%  0.0%  0.0%    skip:13.1%
[libx264 @ 0x55fa01137c60] mb B  I16..4:  0.0%  0.0%  0.0%  B16..8: 44.4%  2.6%  0.4%  direct: 0.2%  skip:52.5%  L0:37.6% L1:58.6% BI: 3.9%
[libx264 @ 0x55fa01137c60] 8x8 transform intra:74.5% inter:62.0%
[libx264 @ 0x55fa01137c60] coded y,uvDC,uvAC intra: 92.5% 87.5% 45.0% inter: 12.3% 7.1% 0.1%
[libx264 @ 0x55fa01137c60] i16 v,h,dc,p:  0% 20% 60% 20%
[libx264 @ 0x55fa01137c60] i8 v,h,dc,ddl,ddr,vr,hd,vl,hu:  7% 13% 16%  8% 10% 13%  9%  7% 16%
[libx264 @ 0x55fa01137c60] i4 v,h,dc,ddl,ddr,vr,hd,vl,hu: 17%  7% 20%  4% 11% 26%  4%  3%  7%
[libx264 @ 0x55fa01137c60] i8c dc,h,v,p: 49% 21% 19% 11%
[libx264 @ 0x55fa01137c60] Weighted P-Frames: Y:1.3% UV:0.0%
[libx264 @ 0x55fa01137c60] ref P L0: 64.9% 22.4% 10.6%  2.0%  0.0%
[libx264 @ 0x55fa01137c60] ref B L0: 94.5%  5.1%  0.4%
[libx264 @ 0x55fa01137c60] ref B L1: 96.5%  3.5%
[libx264 @ 0x55fa01137c60] PSNR Mean Y:40.283 U:48.031 V:50.231 Avg:41.756 Global:41.700 kb/s:304.76
